Coordinates
version=1
nRows=29
nColumns=24
inDegrees=yes

Units are S.I. units (second, meters, Newtons, ...)
Angles are in degrees.

endheader
time	pelvis_tilt	pelvis_list	pelvis_rotation	pelvis_tx	pelvis_ty	pelvis_tz	hip_flexion_r	hip_adduction_r	hip_rotation_r	knee_angle_r	ankle_angle_r	subtalar_angle_r	mtp_angle_r	hip_flexion_l	hip_adduction_l	hip_rotation_l	knee_angle_l	ankle_angle_l	subtalar_angle_l	mtp_angle_l	lumbar_extension	lumbar_bending	lumbar_rotation
      4.63000000	     -8.13985516	     -6.19419360	      4.90586262	     -1.55741121	     -0.00121495	     -0.29054551	     12.39983008	      9.80418618	      5.17961297	    -12.75733894	      0.73165715	     -4.48322486	     10.83458526	     24.98162968	     -7.31024769	      0.81907183	    -63.92012621	    -12.77770414	     -5.32652846	     21.91675629	      6.91676429	      5.24807918	     -0.07255019
      4.63500000	     -8.13854672	     -5.93116717	      4.66969052	     -1.55251933	     -0.00081972	     -0.29002142	     11.92558804	      9.62133875	      5.43752911	    -12.57641044	      1.01222926	     -4.33997069	     10.83022700	     25.57434600	     -7.06635957	      0.46886846	    -63.58394520	    -12.11707949	     -5.22060934	     22.10231324	      6.78830628	      4.99352786	      0.37391799
      4.64000000	     -8.16862205	     -5.68163915	      4.57147950	     -1.54762296	     -0.00047899	     -0.28965746	     11.46781234	      9.41081726	      5.56400733	    -12.33252651	      1.21942713	     -4.25639533	     10.87474533	     26.22005373	     -6.74978776	      0.29147886	    -63.18322073	    -11.55717927	     -5.20052327	     22.24372864	      6.71337073	      4.71022827	      0.63196205
      4.64500000	     -8.14216734	     -5.44354653	      4.36601940	     -1.54277666	     -0.00017429	     -0.28920233	     10.97230765	      9.23055517	      5.72115106	    -12.13165200	      1.50513990	     -4.02622309	     11.04407717	     26.76881434	     -6.52249387	     -0.01448214	    -62.72715947	    -10.95054953	     -5.12540096	     22.37443082	      6.56041097	      4.48050124	      1.03960936
      4.65000000	     -8.12187078	     -5.21362106	      4.22551919	     -1.53792229	      0.00008227	     -0.28884588	     10.47452992	      9.03778902	      5.81922867	    -11.89905742	      1.75144497	     -3.82522696	     11.26675671	     27.32179164	     -6.26082281	     -0.23314144	    -62.20860619	    -10.40331456	     -5.09530023	     22.44809200	      6.42769207	      4.24194558	      1.36161480
      4.65500000	     -8.12902046	     -4.99907005	      4.13340519	     -1.53307961	      0.00022747	     -0.28855637	     10.00666630	      8.85107743	      5.90342690	    -11.65764323	      1.98405093	     -3.72438647	     11.45556999	     27.90910003	     -5.98546483	     -0.38526687	    -61.64475337	     -9.91125897	     -5.08731149	     22.51698056	      6.33146827	      4.00945039	      1.61736714
      4.66000000	     -8.06415621	     -4.79685415	      3.95515134	     -1.52826195	      0.00040688	     -0.28822203	      9.47868543	      8.68778080	      6.01042006	    -11.44357920	      2.19582106	     -3.48939781	     11.82284030	     28.37155096	     -5.77319511	     -0.61326241	    -61.00496681	     -9.37880486	     -5.09456501	     22.51798652	      6.14506318	      3.81583782	      1.98822328
      4.66500000	     -8.02641112	     -4.59950187	      3.83703590	     -1.52345666	      0.00048228	     -0.28795764	      8.98465836	      8.52100122	      6.11397316	    -11.23192517	      2.38139503	     -3.39003867	     12.15806753	     28.86379356	     -5.52735891	     -0.76058541	    -60.31459343	     -8.88693220	     -5.12603935	     22.48268670	      5.99550923	      3.60903492	      2.27119656
      4.67000000	     -8.03481260	     -4.43362386	      3.76687703	     -1.51865174	      0.00042796	     -0.28777588	      8.54016046	      8.37988311	      6.21781625	    -11.01620264	      2.58326750	     -3.38860737	     12.33684973	     29.41276539	     -5.27817187	     -0.82157382	    -59.58520829	     -8.46268539	     -5.16375824	     22.48044374	      5.90910333	      3.42753386	      2.50872123
      4.67500000	     -7.93427003	     -4.24947461	      3.56647065	     -1.51386661	      0.00047719	     -0.28750906	      7.99723742	      8.24083862	      6.42407006	    -10.84121676	      2.73523816	     -3.31915062	     12.68557846	     29.77291544	     -5.09200459	     -1.02202941	    -58.76409388	     -7.98117100	     -5.22980413	     22.33486305	      5.68392972	      3.27030520	      2.89270633
      4.68000000	     -7.95860318	     -4.12305200	      3.51573333	     -1.50910583	      0.00030553	     -0.28743960	      7.59971192	      8.13558484	      6.53500308	    -10.67331830	      2.90454356	     -3.37409423	     12.78858658	     30.30668631	     -4.85111760	     -0.98133399	    -57.91746724	     -7.59694479	     -5.29095032	     22.30243341	      5.61710498	      3.14036122	      3.10744784
      4.68500000	     -7.83162434	     -3.92687594	      3.28509808	     -1.50433066	      0.00027568	     -0.28713839	      7.04560922	      7.99967084	      6.86364161	    -10.54164601	      3.05755559	     -3.48030949	     13.03879305	     30.58542619	     -4.68139661	     -1.20403179	    -56.97570153	     -7.14342598	     -5.37466644	     22.00743263	      5.36157841	      2.96487491	      3.52223876
      4.69000000	     -7.77093350	     -3.76802920	      3.13950834	     -1.49959151	      0.00012984	     -0.28699711	      6.57659144	      7.88489736	      7.15378604	    -10.42390987	      3.16022295	     -3.68929154	     13.17884138	     30.94348771	     -4.47646590	     -1.26615146	    -55.99252929	     -6.71375648	     -5.42767568	     21.66367628	      5.18599968	      2.81897121	      3.83556595
      4.69500000	     -7.79705686	     -3.63035491	      3.04218384	     -1.49489256	     -0.00017357	     -0.28693556	      6.23421760	      7.78098931	      7.34070906	    -10.36048121	      3.34724211	     -3.85480496	     13.22135939	     31.39328943	     -4.25699625	     -1.23521068	    -54.95369813	     -6.36613523	     -5.47870062	     21.52182839	      5.10563531	      2.68394088	      4.06176319
      4.70000000	     -7.67229993	     -3.48528599	      2.84673220	     -1.49012403	     -0.00031643	     -0.28675098	      5.69234684	      7.70247080	      7.81524539	    -10.25621957	      3.39297357	     -4.28247224	     13.07936362	     31.61918949	     -4.11453941	     -1.33870100	    -53.86447920	     -5.88297783	     -5.47581718	     20.80400108	      4.86709457	      2.56297480	      4.44465899
      4.70500000	     -7.72658967	     -3.33932543	      2.69443127	     -1.48546519	     -0.00069258	     -0.28667038	      5.41713205	      7.59444719	      8.07576620	    -10.27037018	      3.61366235	     -4.43355690	     13.07337480	     32.03094514	     -3.91892090	     -1.32262015	    -52.68839284	     -5.61936864	     -5.56107275	     20.61504461	      4.80981692	      2.42598706	      4.72638688
      4.71000000	     -7.63363525	     -3.20362801	      2.46800676	     -1.48079297	     -0.00094915	     -0.28648824	      4.95555352	      7.52998768	      8.60199171	    -10.25965438	      3.75396157	     -4.87276337	     12.70054280	     32.24371182	     -3.80921806	     -1.42492148	    -51.48245466	     -5.22736272	     -5.61123811	     19.89751627	      4.58820450	      2.32183178	      5.16739112
      4.71500000	     -7.66380112	     -3.06323780	      2.25179859	     -1.47610568	     -0.00131974	     -0.28637329	      4.65227023	      7.43665716	      9.02077879	    -10.29017760	      3.95251740	     -5.09241522	     12.47192914	     32.55393469	     -3.67572750	     -1.47748652	    -50.18465369	     -4.97154537	     -5.72059455	     19.39638954	      4.51236941	      2.20216044	      5.52313959
      4.72000000	     -7.73364954	     -2.92677752	      2.13882251	     -1.47144915	     -0.00179405	     -0.28636460	      4.41654406	      7.33491431	      9.26597525	    -10.34975867	      4.16308416	     -5.31261497	     12.37350149	     32.89773213	     -3.49193086	     -1.39526434	    -48.82353153	     -4.77015072	     -5.73740593	     19.11382258	      4.47978585	      2.06584177	      5.75210047
      4.72500000	     -7.68140084	     -2.80370120	      1.84350833	     -1.46679997	     -0.00213315	     -0.28617608	      4.02444691	      7.27742124	      9.86731411	    -10.39210214	      4.32155764	     -5.68717906	     11.90202802	     33.05181844	     -3.44695865	     -1.53546759	    -47.42941536	     -4.48164561	     -5.87728186	     18.23527030	      4.29734934	      1.98280003	      6.23336225
      4.73000000	     -7.72306639	     -2.66687567	      1.64986792	     -1.46211893	     -0.00261363	     -0.28613012	      3.75456094	      7.18390728	     10.28037592	    -10.47120368	      4.57618228	     -5.95559880	     11.48243814	     33.29080000	     -3.32845517	     -1.55865058	    -45.98141730	     -4.18444609	     -5.87315475	     17.38407000	      4.23093437	      1.86843417	      6.56883307
      4.73500000	     -7.76752344	     -2.55716302	      1.46162814	     -1.45745733	     -0.00313216	     -0.28608029	      3.49950543	      7.11494031	     10.62615617	    -10.56080597	      4.83897770	     -6.14330277	     11.13818965	     33.51013681	     -3.24403728	     -1.55876792	    -44.48410697	     -3.92215367	     -5.87108152	     16.58050357	      4.16446470	      1.77245673	      6.89583892
      4.74000000	     -7.88020495	     -2.45377696	      1.34716282	     -1.45276794	     -0.00376924	     -0.28610386	      3.32500770	      7.03845472	     10.81101125	    -10.64421758	      5.07729652	     -6.29756461	     11.05975346	     33.78207964	     -3.13308786	     -1.46562358	    -42.91489314	     -3.78709208	     -5.83039643	     16.20236333	      4.17961131	      1.66377959	      7.09185383
      4.74500000	     -7.82824749	     -2.36353356	      1.14054457	     -1.44801467	     -0.00421862	     -0.28608134	      2.93751542	      6.98589481	     11.21474638	    -10.70339437	      5.35577977	     -6.46363937	     10.46883317	     33.83302363	     -3.10307862	     -1.52513779	    -41.36868625	     -3.26339293	     -5.61784551	     14.65795134	      4.01939224	      1.59930893	      7.45898396
      4.75000000	     -7.98649153	     -2.28128223	      0.98955756	     -1.44332504	     -0.00494225	     -0.28613358	      2.82819052	      6.92250356	     11.39118642	    -10.81310015	      5.60407058	     -6.52089465	     10.48737490	     34.09531976	     -3.04439479	     -1.47582857	    -39.70214298	     -3.23834347	     -5.67330994	     14.32202122	      4.08315097	      1.52513753	      7.71523274
      4.75500000	     -7.97375256	     -2.19759436	      0.80152608	     -1.43853724	     -0.00547198	     -0.28619866	      2.49378866	      6.85075529	     11.61063392	    -10.86737659	      5.89364256	     -6.48837561	     10.30210105	     34.12913567	     -3.01757697	     -1.50512277	    -38.04338918	     -2.87486166	     -5.49485850	     13.14315643	      3.96888502	      1.46764588	      8.04510046
      4.76000000	     -8.13097604	     -2.14283300	      0.65929373	     -1.43379113	     -0.00622785	     -0.28629059	      2.37136057	      6.80730853	     11.74794043	    -10.95255434	      6.09897044	     -6.52473414	     10.35484715	     34.33915786	     -2.99994295	     -1.45480147	    -36.30831911	     -2.85064370	     -5.43121337	     12.87029802	      4.03674824	      1.42496836	      8.28996370
      4.76500000	     -8.20561412	     -2.07441086	      0.45602821	     -1.42894946	     -0.00686610	     -0.28633145	      2.13268917	      6.74177272	     11.91588231	    -10.99482829	      6.31642415	     -6.45114503	     10.43876826	     34.40819042	     -3.01655777	     -1.50280503	    -34.53433816	     -2.76788197	     -5.31966243	     12.42972836	      4.02971633	      1.37189145	      8.61542831
      4.77000000	     -8.30468516	     -2.03061090	      0.33932739	     -1.42414987	     -0.00759808	     -0.28648620	      1.93912982	      6.69936562	     11.98217616	    -11.06646321	      6.52511250	     -6.43473361	     10.53469787	     34.50604015	     -3.00588459	     -1.41813922	    -32.75504399	     -2.65836182	     -5.05039571	     12.14669832	      4.03185506	      1.33689709	      8.83261688
